<?xml version="1.0" encoding="UTF-8"?>
<!-- Generator: Adobe Illustrator 25.2.0, SVG Export Plug-In . SVG Version: 6.00 Build 0)  -->
<svg xmlns="http://www.w3.org/2000/svg" xmlns:xlink="http://www.w3.org/1999/xlink" version="1.1" id="Capa_1" x="0px" y="0px" viewBox="0 0 512 512" style="enable-background:new 0 0 512 512;" xml:space="preserve">
<style type="text/css">
	.st0{fill:#FFDEB9;}
	.st1{opacity:0.15;}
	.st2{fill:#DE8957;}
	.st3{fill:#C76D33;}
	.st4{fill:#4F4C5F;}
	.st5{fill:#E64C3C;}
	.st6{fill:#C03A2B;}
	.st7{fill:#FFF3CC;}
</style>
<rect class="st0" width="512" height="512"></rect>
<path class="st1" d="M512,170.2l-95.7-96.4L256.5,216L80.9,413l100.8,99c20.5,0,305.3,0,330.3,0C512,470.3,512,213.7,512,170.2z"></path>
<g>
	<g>
		<path class="st2" d="M435.6,124.4c4.2-4.2,5.7-10.6,3.6-16.2c-3.1-8.6-9.1-21.4-20.5-32.7S394.6,58,386,54.9    c-5.7-2-12-0.6-16.2,3.6L158.1,270.2c-7.5,7.5-10.1,18.6-6.8,28.7c3.4,10.1,0.7,21.2-6.8,28.7l3.8,18.1l18.1,3.8    c7.5-7.5,18.6-10.1,28.7-6.8c10.1,3.4,21.2,0.7,28.7-6.8L435.6,124.4z"></path>
	</g>
	<g>
		<path class="st3" d="M173.3,320.9c-3.4-10.1-0.7-21.2,6.8-28.7L397.7,74.6c4.2-4.2,10.6-5.7,16.2-3.6c0,0,0,0,0,0    c-10-8.5-20.5-13.4-27.9-16c-5.7-2-12-0.6-16.2,3.6L158.1,270.2c-7.5,7.5-10.1,18.6-6.8,28.7c3.4,10.1,0.7,21.2-6.8,28.7l3.8,18.1    l18.1,3.8l0,0C174,342.1,176.7,331,173.3,320.9L173.3,320.9z"></path>
	</g>
	<g>
		<path class="st4" d="M144.6,327.6l21.9,21.9L103.1,413l-21.9-21.9L144.6,327.6z"></path>
	</g>
	<g>
		<path class="st2" d="M59.2,369.2c6.1-6.1,15.9-6.1,21.9,0L125,413c6.1,6.1,6.1,15.9,0,21.9c-6.1,6.1-15.9,6.1-21.9,0l-43.9-43.9    C53.2,385.1,53.2,375.2,59.2,369.2z"></path>
	</g>
	<g>
		<path class="st3" d="M92.1,402.1c6.1-6.1,15.9-6.1,21.9,0l-32.9-32.9c-6.1-6.1-15.9-6.1-21.9,0c-6.1,6.1-6.1,15.9,0,21.9L92.1,424    C86.1,418,86.1,408.1,92.1,402.1z"></path>
	</g>
	<g>
		<path id="Shape_4_" class="st5" d="M353.6,225.2l-77.7,77.7c-2.2-2.8-4.1-5.8-5.7-9c-1.1-2.2-2.1-4.5-2.9-6.9    c-6.9-20-1.8-42.3,13.2-57.2s37.2-20.1,57.2-13.2c2.3,0.8,4.6,1.8,6.9,2.9C347.8,221.1,350.8,223,353.6,225.2L353.6,225.2z"></path>
		<path id="Shape_5_" class="st6" d="M363.4,235l-77.7,77.7c-3.6-2.9-6.9-6.1-9.8-9.8l77.7-77.7C357.3,228,360.5,231.3,363.4,235    L363.4,235z"></path>
		<path id="Shape_6_" class="st5" d="M358.8,308.1c-15,15-37.2,20.1-57.2,13.2c-2.3-0.8-4.6-1.8-6.9-2.9c-3.2-1.6-6.2-3.5-9-5.7    l77.7-77.7c2.2,2.8,4.1,5.8,5.7,9c1.1,2.2,2.1,4.5,2.9,6.9C378.9,270.9,373.8,293.1,358.8,308.1L358.8,308.1z"></path>
		<g>
			<path id="Shape_7_" class="st7" d="M275.6,288.5l-5.4,5.4c-1.1-2.2-2.1-4.5-2.9-6.9l3.4-3.4c1.3-1.3,3.5-1.3,4.9,0     C276.9,285,276.9,287.2,275.6,288.5L275.6,288.5z"></path>
			<path id="Shape_8_" class="st7" d="M280.5,282.2c-1.4,0-2.7-0.8-3.2-2.1s-0.2-2.8,0.7-3.8l4.9-4.9c0.9-1,2.2-1.4,3.4-1     c1.2,0.3,2.2,1.3,2.5,2.5c0.3,1.2-0.1,2.6-1.1,3.4l-4.9,4.9C282.3,281.8,281.4,282.2,280.5,282.2z"></path>
			<path id="Shape_9_" class="st7" d="M295.2,267.5c-1.4,0-2.7-0.8-3.2-2.1c-0.5-1.3-0.2-2.8,0.8-3.8l4.9-4.9c1.4-1.3,3.5-1.3,4.9,0     c1.3,1.3,1.4,3.5,0,4.9l-4.9,4.9C297,267.1,296.1,267.5,295.2,267.5L295.2,267.5z"></path>
			<path id="Shape_10_" class="st7" d="M309.9,252.8c-1.4,0-2.7-0.8-3.2-2.1c-0.5-1.3-0.2-2.8,0.7-3.8l4.9-4.9     c1.4-1.3,3.5-1.3,4.9,0c1.3,1.3,1.4,3.5,0,4.9l-4.9,4.9C311.7,252.4,310.8,252.8,309.9,252.8L309.9,252.8z"></path>
			<path id="Shape_11_" class="st7" d="M324.6,238.1c-1.4,0-2.6-0.8-3.2-2.1c-0.5-1.3-0.3-2.8,0.7-3.8l4.9-4.9     c0.9-0.9,2.1-1.2,3.3-0.9s2.1,1.3,2.5,2.4c0.3,1.2,0,2.5-0.9,3.3l-4.9,4.9C326.3,237.8,325.5,238.1,324.6,238.1L324.6,238.1z"></path>
			<path id="Shape_12_" class="st7" d="M344.6,219.5l-5.4,5.4c-1.4,1.3-3.5,1.3-4.9,0c-1.3-1.3-1.3-3.5,0-4.9l3.4-3.4     C340.1,217.4,342.4,218.4,344.6,219.5z"></path>
			<path id="Shape_13_" class="st7" d="M305,317.9l-3.4,3.4c-2.3-0.8-4.6-1.8-6.9-2.9l5.4-5.4c1.4-1.3,3.6-1.3,4.9,0     C306.3,314.3,306.3,316.5,305,317.9L305,317.9z"></path>
			<path id="Shape_14_" class="st7" d="M309.9,311.5c-1.4,0-2.7-0.8-3.2-2.1c-0.5-1.3-0.2-2.8,0.7-3.8l4.9-4.9     c1.4-1.3,3.5-1.3,4.9,0c1.3,1.3,1.4,3.5,0,4.9l-4.9,4.9C311.7,311.2,310.8,311.5,309.9,311.5L309.9,311.5z"></path>
			<path id="Shape_15_" class="st7" d="M324.6,296.9c-1.4,0-2.7-0.8-3.2-2.1c-0.5-1.3-0.2-2.8,0.7-3.8l4.9-4.9     c0.9-0.9,2.2-1.3,3.4-0.9c1.2,0.3,2.2,1.3,2.5,2.5c0.3,1.2,0,2.5-0.9,3.4l-4.9,4.9C326.4,296.5,325.5,296.9,324.6,296.9z"></path>
			<path id="Shape_16_" class="st7" d="M339.2,282.2c-1.4,0-2.7-0.8-3.2-2.1c-0.5-1.3-0.2-2.8,0.7-3.8l4.9-4.9     c1.4-1.3,3.5-1.3,4.9,0c1.3,1.3,1.4,3.5,0,4.9l-4.9,4.9C341,281.8,340.2,282.2,339.2,282.2L339.2,282.2z"></path>
			<path id="Shape_17_" class="st7" d="M353.9,267.5c-1.4,0-2.7-0.8-3.2-2.1c-0.5-1.3-0.2-2.8,0.8-3.8l4.9-4.9     c1.4-1.3,3.5-1.3,4.9,0c1.3,1.3,1.4,3.5,0,4.9l-4.9,4.9C355.7,267.1,354.8,267.5,353.9,267.5L353.9,267.5z"></path>
			<path id="Shape_18_" class="st7" d="M372,250.8l-3.4,3.4c-0.9,0.9-2.2,1.2-3.3,0.9c-1.2-0.3-2.1-1.3-2.4-2.5s0-2.5,0.9-3.3     l5.4-5.4C370.2,246.2,371.2,248.5,372,250.8L372,250.8z"></path>
		</g>
	</g>
</g>
</svg>
