<?xml version="1.0" encoding="UTF-8"?>
<!-- Generator: Adobe Illustrator 25.2.0, SVG Export Plug-In . SVG Version: 6.00 Build 0)  -->
<svg xmlns="http://www.w3.org/2000/svg" xmlns:xlink="http://www.w3.org/1999/xlink" version="1.1" id="Layer_1" x="0px" y="0px" viewBox="0 0 512 512" style="enable-background:new 0 0 512 512;" xml:space="preserve">
<style type="text/css">
	.st0{fill:#F9B54C;}
	.st1{fill:#F4A200;}
	.st2{fill:#E6F3FF;}
	.st3{fill:#CFDBE6;}
	.st4{fill:#FD8469;}
	.st5{fill:#B8C9D9;}
	.st6{fill:#FC6F58;}
	.st7{fill:#9DB0C1;}
</style>
<rect class="st0" width="511.8" height="511.8"></rect>
<path class="st1" d="M512,241.3L369.6,99.5l-20.4,49.2l-207.1,267l95.4,96.3c6.1,0.4,197.3,0,274.2,0  C511.8,443,512.3,246.1,512,241.3z"></path>
<g>
	<polygon class="st2" points="369.8,415.9 353.5,422.8 337.2,415.9 321,422.8 304.7,415.9 288.5,422.8 272.2,415.9 256,422.8    239.7,415.9 223.5,422.8 207.2,415.9 191,422.8 174.7,415.9 158.5,422.8 142.2,415.9 142.2,99.6 158.5,106.5 174.7,99.6 191,106.5    207.2,99.6 223.5,106.5 239.7,99.6 256,106.5 272.2,99.6 288.5,106.5 304.7,99.6 321,106.5 337.2,99.6 353.5,106.5 369.8,99.6  "></polygon>
	<polygon class="st2" points="239.7,99.6 223.5,106.5 207.2,99.6 191,106.5 174.7,99.6 158.5,106.5 142.2,99.6 142.2,415.9    158.5,422.8 174.7,415.9 191,422.8 207.2,415.9 223.5,422.8 239.7,415.9 254.6,422.2 254.6,105.8  "></polygon>
</g>
<polygon class="st3" points="353.5,106.5 337.2,99.6 321,106.5 304.7,99.6 288.5,106.5 272.2,99.6 256,106.5 254.6,105.8   254.6,422.2 256,422.8 272.2,415.9 288.5,422.8 304.7,415.9 321,422.8 337.2,415.9 353.5,422.8 369.8,415.9 369.8,99.6 "></polygon>
<rect x="173.7" y="134.7" class="st4" width="68.4" height="50.4"></rect>
<g>
	<rect x="250.1" y="134.2" class="st5" width="91.3" height="6.9"></rect>
	<rect x="250.1" y="156.2" class="st5" width="91.3" height="6.9"></rect>
	<rect x="250.1" y="178.2" class="st5" width="91.3" height="6.9"></rect>
	<rect x="174" y="200.2" class="st5" width="167.3" height="6.9"></rect>
	<rect x="174" y="222.2" class="st5" width="167.3" height="6.9"></rect>
	<rect x="174" y="244.1" class="st5" width="167.3" height="6.9"></rect>
</g>
<rect x="272.9" y="263.1" class="st6" width="68.4" height="50.4"></rect>
<g>
	<rect x="173.7" y="262.7" class="st5" width="91.3" height="6.9"></rect>
	<rect x="173.7" y="284.7" class="st5" width="91.3" height="6.9"></rect>
	<rect x="173.7" y="306.6" class="st5" width="91.3" height="6.9"></rect>
	<rect x="173.7" y="328.6" class="st5" width="167.3" height="6.9"></rect>
	<rect x="173.7" y="350.6" class="st5" width="167.3" height="6.9"></rect>
	<rect x="173.7" y="372.6" class="st5" width="167.3" height="6.9"></rect>
</g>
<g>
	<rect x="254.6" y="134.2" class="st7" width="86.8" height="6.9"></rect>
	<rect x="254.6" y="156.2" class="st7" width="86.8" height="6.9"></rect>
	<rect x="254.6" y="178.2" class="st7" width="86.8" height="6.9"></rect>
	<rect x="254.6" y="200.2" class="st7" width="86.8" height="6.9"></rect>
	<rect x="254.6" y="222.2" class="st7" width="86.8" height="6.9"></rect>
	<rect x="254.6" y="244.1" class="st7" width="86.8" height="6.9"></rect>
	<rect x="254.6" y="262.7" class="st7" width="10.4" height="6.9"></rect>
	<rect x="254.6" y="284.7" class="st7" width="10.4" height="6.9"></rect>
	<rect x="254.6" y="306.6" class="st7" width="10.4" height="6.9"></rect>
	<rect x="254.6" y="328.6" class="st7" width="86.4" height="6.9"></rect>
	<rect x="254.6" y="350.6" class="st7" width="86.4" height="6.9"></rect>
	<rect x="254.6" y="372.6" class="st7" width="86.4" height="6.9"></rect>
</g>
</svg>
