<?xml version="1.0" encoding="UTF-8"?>
<!-- Generator: Adobe Illustrator 25.2.0, SVG Export Plug-In . SVG Version: 6.00 Build 0)  -->
<svg xmlns="http://www.w3.org/2000/svg" xmlns:xlink="http://www.w3.org/1999/xlink" version="1.1" id="Capa_1" x="0px" y="0px" viewBox="0 0 512 512" style="enable-background:new 0 0 512 512;" xml:space="preserve">
<style type="text/css">
	.st0{fill:#016D3E;}
	.st1{fill:#024F2C;}
	.st2{fill:#FFFFFF;}
	.st3{fill:#FFF5CB;}
	.st4{fill:#00CDB4;}
	.st5{fill:#00AC95;}
	.st6{fill:#FE990E;}
	.st7{fill:#E57409;}
	.st8{fill:#508CD3;}
	.st9{fill:#216FCE;}
</style>
<rect class="st0" width="512" height="512"></rect>
<path class="st1" d="M512,201.8L391.4,80H120.6v333.3l98.3,98.7c20.5,0,268.1,0,293.1,0C512,470.2,512,245.4,512,201.8z"></path>
<rect x="120.6" y="80" class="st2" width="270.9" height="324.9"></rect>
<rect x="256" y="80" class="st3" width="135.4" height="324.9"></rect>
<rect x="120.6" y="383.7" class="st4" width="270.9" height="29.6"></rect>
<rect x="256" y="383.7" class="st5" width="135.4" height="29.6"></rect>
<rect x="162.8" y="193.9" class="st6" width="186.4" height="27"></rect>
<rect x="256" y="193.9" class="st7" width="93.2" height="27"></rect>
<rect x="162.8" y="129.6" class="st6" width="186.4" height="27"></rect>
<rect x="256" y="129.6" class="st7" width="93.2" height="27"></rect>
<rect x="162.8" y="258" class="st6" width="186.4" height="27"></rect>
<rect x="256" y="258" class="st7" width="93.2" height="27"></rect>
<circle class="st8" cx="367" cy="369.9" r="63.1"></circle>
<path class="st9" d="M430.1,369.9c0,34.5-27.8,62.6-62.2,63.1V306.9C402.3,307.3,430.1,335.4,430.1,369.9z"></path>
<polygon class="st2" points="396.3,339.3 358.7,380.5 337.7,362.7 324.9,377.7 360.4,407.9 410.9,352.6 "></polygon>
<polygon class="st3" points="410.9,352.6 367.9,399.7 367.9,370.4 396.3,339.3 "></polygon>
</svg>
