<?xml version="1.0" encoding="UTF-8"?>
<!-- Generator: Adobe Illustrator 25.2.0, SVG Export Plug-In . SVG Version: 6.00 Build 0)  -->
<svg xmlns="http://www.w3.org/2000/svg" xmlns:xlink="http://www.w3.org/1999/xlink" version="1.1" id="Lager_1" x="0px" y="0px" viewBox="0 0 60 60" style="enable-background:new 0 0 60 60;" xml:space="preserve">
<style type="text/css">
	.st0{fill:#198961;}
	.st1{fill:#04774E;}
	.st2{fill:#F0F0F0;}
	.st3{fill:#303030;}
</style>
<g id="Layer_2_copy_xA0_Image_1_">
</g>
<g id="Ellipse_1_1_">
</g>
<g id="Rounded_Rectangle_1_1_">
	<rect class="st0" width="60" height="60"></rect>
	<path class="st1" d="M60,33.4L43.1,16.6L16.5,43.2L33.4,60c0,0,26.1,0,26.6,0C60,52.2,60,39.2,60,33.4z"></path>
</g>
<g id="_x32_019">
	<g>
		<path class="st2" d="M30,48.8c-10.4,0-18.8-8.4-18.8-18.8S19.6,11.2,30,11.2S48.8,19.6,48.8,30S40.4,48.8,30,48.8z"></path>
		<path class="st3" d="M31.5,13.8L24.2,17h-5.7l0.4-2.2c-0.2,0.2-0.5,0.3-0.7,0.5l-0.2,2l-4,6.3l-2.3,2.3c-0.1,0.3-0.1,0.6-0.2,0.9    l2.4-2.6l2.8,5l-0.1,8.1l-1.9,2.2L13,38c0.2,0.4,0.4,0.8,0.6,1.2l0.6,0.4l-0.1,0.3c0.1,0.2,0.3,0.4,0.4,0.6c0-0.1,0-0.3,0-0.4    l4.7,5.2c1.3,0.9,2.6,1.6,4.1,2.2L26,48l4.6,0.7c0.7,0,1.4-0.1,2.1-0.2l-6.6-1.2l-0.9-4.8l7.1-3.8l7.5,1.3v5.1L34.9,48    c2.7-0.7,5.1-2,7.1-3.7l-1.7,0.5v-5.1l3.6-7.6l3.8-1.6l0.8,2.3c0.1-0.9,0.2-1.8,0.2-2.8c0-2-0.3-3.9-0.9-5.8l-0.1,5.6l-3.8,1.6    L39.6,25L39,17.9l4-0.7l3.1,3.2c-0.5-0.8-1-1.5-1.5-2.2L43.3,17l0.1-0.2c-3-3.1-7.1-5.1-11.6-5.5L31.5,13.8z M24.8,42.1l-7.7-4.9    l0.1-8.1l6.3-4.3l8,4l0.5,9.3L24.8,42.1z M39,24.9l-7.2,3.5l-8-4l0.7-6.9l7.2-3.2l6.6,3.6L39,24.9z"></path>
	</g>
</g>
</svg>
