<?xml version="1.0" encoding="UTF-8"?>
<!-- Generator: Adobe Illustrator 25.2.0, SVG Export Plug-In . SVG Version: 6.00 Build 0)  -->
<svg xmlns="http://www.w3.org/2000/svg" xmlns:xlink="http://www.w3.org/1999/xlink" version="1.1" id="Layer_1" x="0px" y="0px" viewBox="0 0 512 512" style="enable-background:new 0 0 512 512;" xml:space="preserve">
<style type="text/css">
	.st0{fill:#036B52;}
	.st1{fill:#084F3B;}
	.st2{fill:#FFD15D;}
	.st3{fill:#F9B54C;}
</style>
<rect class="st0" width="512" height="512"></rect>
<path class="st1" d="M512,286.2L365,139.4L256.7,161l-115.9,4.5l35.3,35.3l-37.4,19.4l55.2,55.2l-12.4,12.4l93.1,125.3L375,512  c65.8,0,103.9,0,137,0C512,467.2,512,378.9,512,286.2z"></path>
<path class="st2" d="M352.1,190.9h-41c-1.8-7.4-4.7-14.4-8.6-20.7h49.6c10,0,18.1-8.1,18.1-18.1s-8.1-18.1-18.1-18.1H153  c-10,0-18.1,8.1-18.1,18.1s8.1,18.1,18.1,18.1h85.3c14.9,0,27.8,8.4,34.3,20.7H153c-10,0-18.1,8.1-18.1,18.1s8.1,18.1,18.1,18.1  h119.6c-6.5,12.3-19.4,20.7-34.3,20.7H153c-7.3,0-13.9,4.4-16.7,11.2c-2.8,6.8-1.2,14.5,3.9,19.7l142.2,142.2  c3.5,3.5,8.2,5.3,12.8,5.3c4.6,0,9.3-1.8,12.8-5.3c7.1-7.1,7.1-18.5,0-25.6L196.7,284h41.6c35.1,0,64.7-24.3,72.8-56.9h41  c10,0,18.1-8.1,18.1-18.1C370.2,199,362.1,190.9,352.1,190.9z"></path>
<g>
	<path class="st3" d="M282.4,420.9c3.5,3.5,8.2,5.3,12.8,5.3c4.6,0,9.3-1.8,12.8-5.3c7.1-7.1,7.1-18.5,0-25.6l-69.8-69.8v51.2   L282.4,420.9z"></path>
	<path class="st3" d="M352.1,190.9h-41c-1.8-7.4-4.7-14.4-8.6-20.7h49.6c10,0,18.1-8.1,18.1-18.1s-8.1-18.1-18.1-18.1H238.2v36.2   h0.1c14.9,0,27.8,8.4,34.3,20.7h-34.4v36.2h34.4c-6.5,12.3-19.4,20.7-34.3,20.7h-0.1V284h0.1c35.1,0,64.6-24.3,72.8-56.9h41   c10,0,18.1-8.1,18.1-18.1C370.2,199,362.1,190.9,352.1,190.9z"></path>
</g>
</svg>
