<?xml version="1.0" encoding="UTF-8"?>
<!-- Generator: Adobe Illustrator 26.0.2, SVG Export Plug-In . SVG Version: 6.00 Build 0)  -->
<svg xmlns="http://www.w3.org/2000/svg" xmlns:xlink="http://www.w3.org/1999/xlink" version="1.1" id="Layer_1" x="0px" y="0px" viewBox="0 0 60 60" style="enable-background:new 0 0 60 60;" xml:space="preserve">
<style type="text/css">
	.st0{fill:#2D9669;}
	.st1{opacity:0.149;enable-background:new    ;}
	.st2{enable-background:new    ;}
	.st3{fill:#EF4937;}
	.st4{fill:none;}
	.st5{fill:#FFFFFF;}
</style>
<g id="Layer_2_copy_xA0_Image_1_">
	<rect y="0" class="st0" width="60" height="60"></rect>
</g>
<g id="Ellipse_1_1_" class="st1">
	<g id="Ellipse_1">
		<g>
			<path d="M29.5,36C17.1,36,7,38.8,7,41s10.1,4,22.5,4S52,43.2,52,41S41.9,36,29.5,36z"></path>
		</g>
	</g>
</g>
<g id="Rounded_Rectangle_1_1_" class="st2">
	<g id="Rounded_Rectangle_1">
		<g>
			<path class="st3" d="M50,33.7l-0.6-9.1c-0.2-3.3-2.7-5.8-5.4-5.6l-30.3,2.8C10.9,22.1,8.8,25,9,28.3l0.6,9.1     c0.2,3.3,2.7,5.8,5.4,5.6l30.3-2.8C48.1,39.9,50.2,37,50,33.7z"></path>
		</g>
	</g>
</g>
<g id="_x32_019">
	<g>
		
			<rect x="13.5" y="25.7" transform="matrix(0.9957 -9.279859e-02 9.279859e-02 0.9957 -3.8114 3.5119)" class="st4" width="44.8" height="34.1"></rect>
		<path class="st5" d="M13.3,35.2c3.8-3.3,4.5-4,4.4-4.9c-0.1-0.6-0.7-0.9-1.4-0.9c-1,0.1-1.7,0.6-2.3,1.2l-1.5-1.5    c0.9-1.2,2.3-1.8,3.6-1.9c2.2-0.2,3.9,0.9,4.1,2.7c0.1,1.4-0.8,2.7-3.1,4.6l3.6-0.3l0.2,2.1l-7.3,0.7L13.3,35.2z"></path>
		<path class="st5" d="M24.7,26.5c2.7-0.3,4.2,2,4.4,4.4c0.2,2.5-0.8,4.9-3.5,5.2c-2.7,0.3-4.2-2-4.4-4.4C21,29.2,22,26.8,24.7,26.5    z M24.9,28.6c-1.1,0.1-1.5,1.2-1.3,2.8c0.2,1.6,0.7,2.7,1.8,2.5c1.1-0.1,1.5-1.2,1.3-2.8S26.1,28.5,24.9,28.6z"></path>
		<path class="st5" d="M30.2,33.7c3.8-3.3,4.5-4,4.4-4.9c-0.1-0.6-0.7-0.9-1.4-0.9c-1,0.1-1.7,0.6-2.3,1.2l-1.5-1.5    c0.9-1.2,2.3-1.8,3.6-1.9c2.2-0.2,3.9,0.9,4.1,2.7c0.1,1.4-0.8,2.7-3.1,4.6l3.6-0.3l0.2,2.1l-7.3,0.7L30.2,33.7z"></path>
		<path class="st5" d="M38.5,32.9c3.8-3.3,4.5-4,4.4-4.9c-0.1-0.6-0.7-0.9-1.4-0.9c-1,0.1-1.7,0.6-2.3,1.2l-1.5-1.5    c0.9-1.2,2.3-1.8,3.6-1.9c2.2-0.2,3.9,0.9,4.1,2.7c0.1,1.4-0.8,2.7-3.1,4.6l3.6-0.3l0.2,2.1l-7.3,0.7L38.5,32.9z"></path>
	</g>
</g>
</svg>
