<?xml version="1.0" encoding="UTF-8"?>
<!-- Generator: Adobe Illustrator 24.3.0, SVG Export Plug-In . SVG Version: 6.00 Build 0)  -->
<svg xmlns="http://www.w3.org/2000/svg" xmlns:xlink="http://www.w3.org/1999/xlink" version="1.1" id="Layer_1" x="0px" y="0px" width="60px" height="60px" viewBox="0 0 60 60" style="enable-background:new 0 0 60 60;" xml:space="preserve">
<style type="text/css">
	.st0{fill:#FFCA12;}
	.st1{opacity:0.149;enable-background:new    ;}
	.st2{fill:#FF4B55;}
	.st3{fill:#FFFFFF;}
	.st4{opacity:0.15;}
	.st5{fill:#E2AE1A;}
	.st6{fill:none;}
</style>
<g id="Layer_2_copy_xA0_Image_3_">
	<rect class="st0" width="60" height="60"></rect>
</g>
<g>
	<path class="st5" d="M60,60c-0.1-4.3,0.1-20.3,0.1-28.3L50,21.5c-2.9-3.1-42.9,15.5-40,18.4l20.6,20.5C36.2,60.4,54.3,60,60,60"></path>
</g>
<path class="st2" d="M46.2,39.4l-29.9,2.9c-4.2,0.4-7.9-2.7-8.3-6.8l-0.4-4.6c-0.4-4.2,2.7-7.9,6.8-8.3l29.9-2.9  c4.2-0.4,7.9,2.7,8.3,6.8l0.4,4.6C53.5,35.3,50.4,39,46.2,39.4z"></path>
<g>
	
		<rect x="14.1" y="24.7" transform="matrix(0.9935 -0.1139 0.1139 0.9935 -4.5161 4.4326)" class="st6" width="44.8" height="34.1"></rect>
	<path class="st3" d="M13.9,35.2c3.9-3.6,4.7-4.4,4.6-5.4c-0.1-0.7-0.8-1-1.5-0.9c-1.1,0.1-1.8,0.6-2.5,1.4l-1.6-1.5   c0.9-1.3,2.4-2,3.8-2.1c2.3-0.3,4.2,0.9,4.4,2.8c0.2,1.5-0.8,2.9-3.2,5l3.8-0.4l0.3,2.2l-7.8,0.9L13.9,35.2z"></path>
	<path class="st3" d="M26,25.7c2.9-0.3,4.5,2,4.8,4.6c0.3,2.6-0.8,5.3-3.7,5.6c-2.9,0.3-4.5-2-4.9-4.7C22.1,28.7,23.1,26,26,25.7z    M26.3,27.9c-1.2,0.1-1.5,1.3-1.3,3.1c0.2,1.8,0.8,2.8,2,2.7c1.2-0.1,1.5-1.3,1.3-3.1C28.1,28.8,27.5,27.8,26.3,27.9z"></path>
	<path class="st3" d="M32.3,33.1c3.9-3.6,4.7-4.4,4.6-5.4c-0.1-0.7-0.8-1-1.5-0.9c-1.1,0.1-1.8,0.6-2.5,1.4l-1.6-1.5   c0.9-1.3,2.4-2,3.8-2.1c2.3-0.3,4.2,0.9,4.4,2.8c0.2,1.5-0.8,2.9-3.2,5L40,32l0.3,2.2l-7.8,0.9L32.3,33.1z"></path>
	<path class="st3" d="M43.3,27.1L41.8,29l-1.6-1.4l3.1-3.8l2.2-0.3l1.1,9.9l-2.6,0.3L43.3,27.1z"></path>
</g>
</svg>
