<?xml version="1.0" encoding="UTF-8"?>
<!-- Generator: Adobe Illustrator 25.2.0, SVG Export Plug-In . SVG Version: 6.00 Build 0)  -->
<svg xmlns="http://www.w3.org/2000/svg" xmlns:xlink="http://www.w3.org/1999/xlink" version="1.1" id="Layer_1" x="0px" y="0px" viewBox="0 0 256 256" style="enable-background:new 0 0 256 256;" xml:space="preserve">
<style type="text/css">
	.st0{fill:#FFC933;}
	.st1{fill:#E2AE1A;}
	.st2{fill:#78D4C2;}
	.st3{fill:#4EA694;}
	.st4{fill:#994416;}
	.st5{fill:#C1832E;}
	.st6{fill:#FFD447;}
</style>
<rect class="st0" width="256" height="256"></rect>
<g>
	<path class="st1" d="M256,256c0-27.2,0-60.1,0-111.2L149.9,36.9c-12.1,30.8-37.2,152.6-42.4,182.2l37.6,36.9   C180.7,256,256,256,256,256z"></path>
</g>
<g>
	<g>
		<g>
			
				<rect x="106.5" y="44.7" transform="matrix(0.9369 -0.3495 0.3495 0.9369 -24.2658 54.1376)" class="st2" width="62.7" height="99.2"></rect>
			
				<rect x="110.8" y="49.4" transform="matrix(0.9369 -0.3495 0.3495 0.9369 -24.1773 53.828)" class="st3" width="52.5" height="89"></rect>
			<path class="st2" d="M144.2,66.6l16,43.5c-6.4,2.6-9.6,9-7,15.4l-7.7,2.6c-2.6-6.4-9-9.6-15.4-7l-16-43.5c6.4-2.6,9.6-9,7-15.4     l7.7-2.6C131.4,66,138.4,69.2,144.2,66.6z"></path>
			<path class="st3" d="M132.7,82c6.4-2.6,14.1,0.6,16.6,7.7c2.6,6.4-0.6,14.1-7.7,16.6c-6.4,2.6-14.1-0.6-16.6-7.7     C122.4,92.2,125.6,84.5,132.7,82z"></path>
			<path class="st3" d="M126.9,67.2c1.9-0.6,4.5,0,5.1,2.6c0.6,1.9,0,4.5-2.6,5.1c-2.6,0.6-4.5,0-5.1-2.6     C123.7,70.4,125,67.9,126.9,67.2z"></path>
			<path class="st3" d="M144.8,114.6c1.9-0.6,4.5,0,5.1,2.6s0,4.5-2.6,5.1c-1.9,0.6-4.5,0-5.1-2.6     C141.6,117.8,142.9,115.9,144.8,114.6z"></path>
			<g>
				<path class="st2" d="M139.1,86.4c1.3-0.6,2.6-0.6,3.8,0.6c0.6,0.6,1.3,1.3,1.9,2.6l1.3-0.6l1.3,3.2l-1.3,0.6      c0,1.3,0,3.2-0.6,3.8c-0.6,1.3-1.3,1.9-1.9,1.9l-1.9-3.2c0.6-0.6,1.3-1.3,1.3-1.9c0-0.6,0-1.3,0-1.9c0-0.6-0.6-1.3-1.3-1.9      c0,0-0.6,0-1.3,0c-0.6,0-1.3,0.6-1.3,1.9c0,0.6-0.6,2.6-0.6,3.8c0,1.3-0.6,2.6-1.3,3.2c-0.6,0.6-1.3,1.3-1.9,1.9      c-0.6,0-1.9,0-2.6,0c-1.3-0.6-1.9-1.3-2.6-2.6l-1.3,0.6l-0.6-2.6l1.3-0.6c0-1.3,0-1.9,0-2.6c0-1.3,0.6-2.6,1.9-3.2l1.9,3.2      c-0.6,0.6-1.3,0.6-1.3,1.3c0,0.6,0,0.6,0,1.3c0,0.6,0.6,1.3,1.3,1.3s0.6,0,1.3,0s1.3-1.3,1.9-2.6c0-0.6,0-1.3,0.6-1.9      c0-1.3,0-1.9,0-1.9c0-1.3,0.6-1.9,0.6-2.6C137.8,87.1,138.4,86.4,139.1,86.4z"></path>
			</g>
		</g>
		<g>
			
				<rect x="78.4" y="53.6" transform="matrix(0.8705 -0.4922 0.4922 0.8705 -36.5871 67.4062)" class="st2" width="62.7" height="99.2"></rect>
			
				<rect x="83.2" y="58.2" transform="matrix(0.8705 -0.4922 0.4922 0.8705 -36.3443 67.1826)" class="st3" width="52.5" height="89"></rect>
			<path class="st2" d="M112.2,74.9l23,40.3c-5.8,3.2-7.7,10.9-4.5,16.6l-7,3.8c-3.2-5.8-10.9-7.7-16.6-4.5L84,90.9     c5.8-3.2,7.7-10.9,4.5-16.6l7-3.8C98.7,76.2,106.4,78.1,112.2,74.9z"></path>
			<path class="st3" d="M102.6,92.2c6.4-3.8,14.1-1.3,17.3,5.1c3.8,6.4,1.3,14.1-5.1,17.3c-6.4,3.8-14.1,1.3-17.3-5.1     C94.3,103.1,96.2,95.4,102.6,92.2z"></path>
			<path class="st3" d="M94.9,78.1c1.9-1.3,4.5-0.6,5.8,1.3c1.3,1.9,0.6,4.5-1.3,5.8c-1.9,1.3-4.5,0.6-5.8-1.3     C92.3,81.3,93,78.8,94.9,78.1z"></path>
			<path class="st3" d="M119.9,122.3c1.9-1.3,4.5-0.6,5.8,1.3c1.3,1.9,0.6,4.5-1.3,5.8c-1.9,1.3-4.5,0.6-5.8-1.3     C117.3,125.5,117.9,123.6,119.9,122.3z"></path>
			<g>
				<path class="st2" d="M109.6,95.4c1.3-0.6,2.6-0.6,3.8,0c0.6,0.6,1.3,1.3,2.6,1.9l1.3-0.6l1.9,3.2l-1.3,0.6      c0.6,1.3,0.6,2.6,0,3.8c0,1.3-0.6,1.9-1.9,2.6l-1.9-3.2c0.6-0.6,1.3-1.3,1.3-1.9c0-0.6,0-1.3-0.6-1.9c-0.6-0.6-1.3-1.3-1.9-1.3      c-0.6,0-0.6,0-1.3,0c-0.6,0-1.3,1.3-1.3,2.6c0,0.6,0,2.6,0,3.8c0,1.3,0,2.6-0.6,3.2c0,1.3-0.6,1.9-1.9,1.9      c-0.6,0.6-1.3,0.6-2.6,0c-1.3,0-1.9-1.3-3.2-2.6v1.3l-1.9-3.2l0.6-0.6c-0.6-1.3-0.6-1.9-0.6-2.6c0-1.3,0.6-2.6,1.3-3.2l2.6,3.2      c-0.6,0.6-0.6,1.3-0.6,1.3c0,0.6,0,0.6,0.6,1.3s0.6,1.3,1.3,1.3c0.6,0,0.6,0,1.3,0c0.6-0.6,1.3-1.3,1.3-2.6c0-0.6,0-1.3,0-1.9      c0-1.3,0-1.9,0-1.9c0-1.3,0-1.9,0.6-2.6C108.3,96,109,95.4,109.6,95.4z"></path>
			</g>
		</g>
		<g>
			
				<rect x="69.5" y="71.8" transform="matrix(0.6293 -0.7771 0.7771 0.6293 -56.9217 123.3755)" class="st2" width="62.7" height="99.2"></rect>
			
				<rect x="74.6" y="76.9" transform="matrix(0.6293 -0.7771 0.7771 0.6293 -56.9178 123.3541)" class="st3" width="52.5" height="89"></rect>
			<path class="st2" d="M93,94.1l36.5,29.4c-4.5,5.1-3.2,12.8,1.9,17.3l-5.1,6.4c-5.1-4.5-12.8-3.2-17.3,1.9l-36.5-29.4     c4.5-5.1,3.2-12.8-1.9-17.3l5.1-6.4C80.8,99.9,88.5,99.2,93,94.1z"></path>
			<path class="st3" d="M90.4,113.3c4.5-5.8,12.8-6.4,17.9-1.9c5.8,4.5,6.4,12.8,1.9,17.9c-4.5,5.8-12.8,6.4-17.9,1.9     C87.2,126.8,85.9,119.1,90.4,113.3z"></path>
			<path class="st3" d="M78.3,103.1c1.3-1.9,3.8-1.9,5.8-0.6c1.9,1.3,1.9,3.8,0.6,5.8c-1.3,1.9-3.8,1.9-5.8,0.6     C77,107.6,77,105,78.3,103.1z"></path>
			<path class="st3" d="M117.9,135.1c1.3-1.9,3.8-1.9,5.8-0.6c1.9,1.3,1.9,3.8,0.6,5.8c-1.3,1.9-3.8,1.9-5.8,0.6     C116.7,139.6,116,137,117.9,135.1z"></path>
			<g>
				<path class="st2" d="M98.1,114c0.6-1.3,1.9-1.3,3.8-1.3c0.6,0,1.9,0.6,2.6,1.3l0.6-0.6l2.6,1.9l-0.6,1.3      c1.3,1.3,1.9,2.6,1.9,3.8s0,1.9-0.6,3.2l-3.2-2.6c0.6-0.6,0.6-1.9,0.6-2.6c0-0.6-0.6-1.3-1.3-1.3c-0.6-0.6-1.3-0.6-1.9-0.6      c-0.6,0-0.6,0-1.3,0.6c-0.6,0.6-0.6,1.3,0,2.6c0,0.6,0.6,1.9,1.3,3.8c0.6,1.3,0.6,2.6,0.6,3.2c0,1.3,0,1.9-0.6,2.6      c-0.6,0.6-1.3,1.3-1.9,1.3c-1.3,0-2.6,0-3.8-0.6l-0.6,0.6l-2.6-1.9l0.6-0.6c-0.6-0.6-1.3-1.3-1.3-2.6c-0.6-1.3-0.6-2.6,0-3.2      l3.2,1.9c0,0.6-0.6,1.3,0,1.9c0,0.6,0.6,0.6,1.3,1.3s1.3,0.6,1.9,0.6s0.6,0,1.3-0.6s0.6-1.3,0-2.6c0-0.6-0.6-1.3-0.6-1.9      c-0.6-1.3-0.6-1.3-0.6-1.9c-0.6-1.3-0.6-1.9-0.6-2.6C97.5,115.2,97.5,114.6,98.1,114z"></path>
			</g>
		</g>
	</g>
	<g>
		
			<rect x="82.7" y="111.2" transform="matrix(0.898 -0.4399 0.4399 0.898 -53.5053 78.007)" class="st4" width="117.8" height="86.4"></rect>
		
			<rect x="157.7" y="123.6" transform="matrix(0.898 -0.4399 0.4399 0.898 -41.9203 93.1886)" class="st5" width="44.8" height="26.9"></rect>
		<path class="st6" d="M182.6,135.7c2.6,4.5,0.6,10.2-4.5,12.2c-4.5,2.6-10.2,0.6-12.2-4.5c-2.6-4.5-0.6-10.2,4.5-12.2    C174.9,129.3,180.7,130.6,182.6,135.7z"></path>
	</g>
</g>
</svg>
